# xmcd
#
# Track frame offsets:
#        150
#        14492
#        28230
#        42955
#        57942
#        73005
#        87845
#        100905
#        114482
#        129030
#        141790
#        155432
#        169197
#        181597
#        194500
#        206167
#        219907
#        234330
#        246747
#        258017
#        271867
#        283482
#        297372
#        309952
#
# Disc length: 4281 seconds
#
# Revision: 0
# Processed by: cddbd v1.5.1PL0 Copyright (c) Steve Scherf et al.
# Submitted via: ExactAudioCopy v0.95a5
#
DISCID=6010b718
DTITLE=Peetie Wheatstraw - The Devil's Son-In-Law
DYEAR=1900
DGENRE=Blues
TTITLE0=Don't Feel Welcome Blues
TTITLE1=Tennessee Peaches Blues
TTITLE2=Ain't It a Pity and a Shame?
TTITLE3=Long Lonesome Drive
TTITLE4=The Last Dime
TTITLE5=Numbers Blues
TTITLE6=Doin' the Best I Can
TTITLE7=The Rising Sun Blues
TTITLE8=Good Whiskey Blues
TTITLE9=Slave Man Blues
TTITLE10=King Spider Blues
TTITLE11=King of Spades
TTITLE12=Johnnie Blues
TTITLE13=No Good Woman Blues(Fighting Blues)
TTITLE14=When I Get My Bonus (Things Will Be Coming My Way)
TTITLE15=Meat Cutter Blues
TTITLE16=Remember and Forget Blues
TTITLE17=Little House (I'm Gonna Chase These Peppers)
TTITLE18=Peetie Wheatstraw Stomp
TTITLE19=Working on the Project
TTITLE20=Shack Bully Stomp
TTITLE21=What More Can a Man Do?
TTITLE22=Gangster's Blues
TTITLE23=Bring Me Flowers While I'm Living
EXTD=
EXTT0=
EXTT1=
EXTT2=
EXTT3=
EXTT4=
EXTT5=
EXTT6=
EXTT7=
EXTT8=
EXTT9=
EXTT10=
EXTT11=
EXTT12=
EXTT13=
EXTT14=
EXTT15=
EXTT16=
EXTT17=
EXTT18=
EXTT19=
EXTT20=
EXTT21=
EXTT22=
EXTT23=
PLAYORDER=
